# xmcd
#
# Track frame offsets: 
#        150
#        12746
#        26370
#        39027
#        51983
#        65122
#        77424
#        89013
#        102534
#        114998
#        127411
#        140891
#        153834
#        166360
#        177764
#        193451
#        208204
#        219056
#
# Disc length: 3083 seconds
#
# Revision: 4
# Processed by: cddbd v1.5.2PL0 Copyright (c) Steve Scherf et al.
# Submitted via: ExactAudioCopy v1.0b4
#
DISCID=090c0912
DTITLE=Big Bill Broonzy - Nothing But The Blues
DYEAR=1930
DGENRE=Blues
TTITLE0=Somebody's Been Using that Thing
TTITLE1=Black Cat Rag
TTITLE2=Pig Meat Strut
TTITLE3=Guitar Rag
TTITLE4=Saturday Night Rub
TTITLE5=Eagle Riding Papa
TTITLE6=Papa's Getting Hot
TTITLE7=Nancy Jane
TTITLE8=That's the Way She Likes It
TTITLE9=House Rent Stomp
TTITLE10=Big Bill Blues
TTITLE11=My Texas Blues
TTITLE12=3 Six Shooters Blues
TTITLE13=Pig Meat Blues
TTITLE14=Down in the Basement Blues
TTITLE15=Starvation Blues
TTITLE16=Grandma's Farm
TTITLE17=Skoodle Do Do
EXTD=
EXTT0=
EXTT1=
EXTT2=
EXTT3=
EXTT4=
EXTT5=
EXTT6=
EXTT7=
EXTT8=
EXTT9=
EXTT10=
EXTT11=
EXTT12=
EXTT13=
EXTT14=
EXTT15=
EXTT16=
EXTT17=
PLAYORDER=
